# Blender v3.2.0 OBJ File: 'door.blend'
# www.blender.org
mtllib arch.mtl
g arch_door_open
v 1.000000 2.000000 -0.250000
v 1.000000 -0.000000 0.250000
v 1.000000 0.000000 -0.250000
v -1.000000 2.000000 -0.250000
v 1.000000 2.000000 -0.250000
v 0.000000 1.875000 -0.250000
v 1.000000 -0.000000 0.250000
v 0.750000 0.000000 -0.250000
v 1.000000 0.000000 -0.250000
v 1.000000 2.000000 0.250000
v -1.000000 2.000000 0.250000
v 0.000000 1.875000 0.250000
v -0.750000 0.000000 -0.250000
v -1.000000 -0.000000 0.250000
v -1.000000 0.000000 -0.250000
v 0.000000 1.875000 -0.250000
v 0.530330 1.655330 0.250000
v 0.000000 1.875000 0.250000
v -0.530330 1.655330 0.250000
v -0.530330 1.655330 -0.250000
v -0.750000 1.125000 0.250000
v -0.750000 0.000000 -0.250000
v -0.750000 1.125000 -0.250000
v 0.750000 1.125000 -0.250000
v 0.750000 -0.000000 0.250000
v 0.750000 1.125000 0.250000
v -1.000000 2.000000 0.250000
v 1.000000 2.000000 -0.250000
v -1.000000 2.000000 -0.250000
v 0.530330 1.655330 -0.250000
v -0.750000 0.000000 -0.250000
v -1.000000 0.000000 -0.250000
v -0.750000 1.125000 -0.250000
v 1.000000 0.000000 -0.250000
v 0.750000 1.125000 -0.250000
v 0.750000 0.000000 -0.250000
v -0.530330 1.655330 -0.250000
v 0.530330 1.655330 -0.250000
v 0.750000 1.125000 0.250000
v 0.750000 -0.000000 0.250000
v 1.000000 -0.000000 0.250000
v -1.000000 -0.000000 0.250000
v -0.750000 1.125000 0.250000
v -0.750000 -0.000000 0.250000
v 0.530330 1.655330 0.250000
v -0.530330 1.655330 0.250000
v -1.000000 2.000000 -0.250000
v -1.000000 -0.000000 0.250000
v -1.000000 2.000000 0.250000
v 1.000000 2.000000 0.250000
v 0.750000 -0.000000 0.250000
v -0.750000 -0.000000 0.250000
v -0.750000 -0.000000 0.250000
v 0.750000 0.000000 -0.250000
v 1.000000 2.000000 0.250000
v -1.000000 0.000000 -0.250000
v 0.287041 1.817979 -0.250000
v -0.692979 1.412041 -0.250000
v 0.692979 1.412041 -0.250000
v -0.287041 1.817979 0.250000
v 0.287041 1.817979 0.250000
v -0.287041 1.817979 -0.250000
v -0.692979 1.412041 0.250000
v 0.692979 1.412041 0.250000
v -0.692979 1.412041 0.250000
v 0.287041 1.817979 0.250000
v -0.287041 1.817979 0.250000
v 0.692979 1.412041 0.250000
v -0.692979 1.412041 -0.250000
v 0.692979 1.412041 -0.250000
v -0.287041 1.817979 -0.250000
v 0.287041 1.817979 -0.250000
vt 0.598794 0.815765
vt 0.499927 0.095266
vt 0.598794 0.095266
vt 0.994261 0.815764
vt 0.598794 0.815765
vt 0.796528 0.770733
vt 0.499927 0.095266
vt 0.598794 0.005203
vt 0.598794 0.095266
vt 0.499928 0.815765
vt 0.104462 0.815767
vt 0.302195 0.770735
vt 0.005595 0.005207
vt 0.104461 0.095269
vt 0.005595 0.095269
vt 0.189431 0.991308
vt 0.152467 0.826929
vt 0.189431 0.826929
vt 0.593068 0.826929
vt 0.448180 0.991308
vt 0.448180 0.826929
vt 0.374252 0.991308
vt 0.411216 0.826928
vt 0.411216 0.991308
vt 0.007579 0.991309
vt 0.152467 0.991309
vt 0.994261 0.995890
vt 0.598794 0.815765
vt 0.994261 0.815764
vt 0.374252 0.826928
vt 0.337288 0.991308
vt 0.337288 0.826928
vt 0.944827 0.095263
vt 0.994261 0.095263
vt 0.944828 0.500545
vt 0.598794 0.095266
vt 0.648227 0.500546
vt 0.648227 0.095266
vt 0.923110 0.596071
vt 0.901392 0.691597
vt 0.669945 0.596072
vt 0.691664 0.691598
vt 0.848960 0.731165
vt 0.744096 0.731166
vt 0.450494 0.500547
vt 0.450494 0.095266
vt 0.499927 0.095266
vt 0.104461 0.095269
vt 0.153895 0.500549
vt 0.153894 0.095269
vt 0.428776 0.596072
vt 0.407058 0.691598
vt 0.175613 0.596074
vt 0.197331 0.691599
vt 0.354627 0.731166
vt 0.249763 0.731167
vt 0.005596 0.815767
vt 0.104461 0.095269
vt 0.104462 0.815767
vt 0.499928 0.815765
vt 0.499927 0.005204
vt 0.104461 0.005207
vt 0.598794 0.995890
vt 0.005595 0.095269
vt 0.263360 0.991308
vt 0.226396 0.826929
vt 0.263360 0.826928
vt 0.300324 0.991308
vt 0.300324 0.826928
vt 0.226396 0.991308
vt 0.593068 0.991309
vt 0.007579 0.826928
vn 1.0000 0.0000 0.0000
vn -0.0000 0.0000 -1.0000
vn 0.0000 -1.0000 -0.0000
vn -0.0000 -0.0000 1.0000
vn 0.9239 -0.3827 0.0000
vn 0.9952 -0.0979 0.0000
vn -1.0000 -0.0000 0.0000
vn -0.9952 -0.0979 0.0000
vn -0.7071 -0.7071 0.0000
vn -0.9239 -0.3827 0.0000
vn 0.0000 1.0000 0.0000
vn -0.3827 -0.9239 0.0000
vn 0.3827 -0.9239 0.0000
vn 0.7071 -0.7071 0.0000
usemtl door
s 1
f 1/1/1 2/2/1 3/3/1
f 4/4/2 5/5/2 6/6/2
f 7/7/3 8/8/3 9/9/3
f 10/10/4 11/11/4 12/12/4
f 13/13/3 14/14/3 15/15/3
f 63/16/5 23/17/6 58/18/5
f 54/19/7 26/20/8 24/21/8
f 17/22/9 59/23/10 64/24/10
f 53/25/1 23/17/6 21/26/6
f 27/27/11 28/28/11 29/29/11
f 30/30/9 61/31/12 57/32/12
f 31/33/2 32/34/2 33/35/2
f 32/34/2 4/4/2 33/35/2
f 5/5/2 34/36/2 35/37/2
f 34/36/2 36/38/2 35/37/2
f 69/39/2 4/4/2 37/40/2
f 5/5/2 70/41/2 38/42/2
f 71/43/2 4/4/2 6/6/2
f 5/5/2 72/44/2 6/6/2
f 39/45/4 40/46/4 41/47/4
f 11/11/4 42/48/4 43/49/4
f 42/48/4 44/50/4 43/49/4
f 39/45/4 41/47/4 10/10/4
f 68/51/4 10/10/4 45/52/4
f 11/11/4 65/53/4 46/54/4
f 66/55/4 10/10/4 12/12/4
f 11/11/4 67/56/4 12/12/4
f 47/57/7 48/58/7 49/59/7
f 1/1/1 50/60/1 2/2/1
f 7/7/3 51/61/3 8/8/3
f 13/13/3 52/62/3 14/14/3
f 27/27/11 55/63/11 28/28/11
f 47/57/7 56/64/7 48/58/7
f 60/65/13 20/66/14 62/67/13
f 18/68/3 62/67/13 16/69/3
f 57/32/12 18/68/3 16/69/3
f 64/24/10 24/21/8 26/20/8
f 19/70/14 58/18/5 20/66/14
f 63/16/5 21/26/6 23/17/6
f 54/19/7 25/71/7 26/20/8
f 17/22/9 30/30/9 59/23/10
f 53/25/1 22/72/1 23/17/6
f 30/30/9 17/22/9 61/31/12
f 69/39/2 33/35/2 4/4/2
f 5/5/2 35/37/2 70/41/2
f 71/43/2 37/40/2 4/4/2
f 5/5/2 38/42/2 72/44/2
f 68/51/4 39/45/4 10/10/4
f 11/11/4 43/49/4 65/53/4
f 66/55/4 45/52/4 10/10/4
f 11/11/4 46/54/4 67/56/4
f 60/65/13 19/70/14 20/66/14
f 18/68/3 60/65/13 62/67/13
f 57/32/12 61/31/12 18/68/3
f 64/24/10 59/23/10 24/21/8
f 19/70/14 63/16/5 58/18/5
