# Blender 3.4.1
# www.blender.org
mtllib BOX.mtl
o IntWall02a
v -0.937500 0.000000 0.950000
v -0.937500 1.875000 0.950000
v 0.937500 1.875000 0.950000
v 0.937500 0.000000 0.950000
v -0.937500 0.112500 1.036250
v 0.937500 0.112500 0.957500
v 0.937500 0.112500 1.036250
v -0.937500 0.112500 0.957500
v -0.937500 0.105000 0.950000
v 0.937500 0.105000 0.950000
v -0.937500 1.762500 1.036250
v 0.937500 1.762500 1.036250
v 0.937500 1.762500 0.946871
v -0.937500 1.762500 0.946871
v 0.937500 1.770000 0.939371
v -0.937500 1.770000 0.939371
v -0.937500 1.770000 1.043750
v 0.937500 1.770000 1.043750
v 0.937500 1.867500 1.043750
v -0.937500 1.867500 1.043750
v -0.937500 1.875000 1.036250
v 0.937500 1.875000 1.036250
v 0.937500 0.105000 1.043750
v -0.937500 0.105000 1.043750
v -0.937500 0.007500 1.043750
v 0.937500 0.007500 1.043750
v 0.937500 0.000000 1.036250
v -0.937500 0.000000 1.036250
v -0.881250 1.762500 0.999022
v -0.881250 1.762500 0.957500
v -0.881250 0.112500 0.957500
v -0.881250 0.112500 0.999022
v -0.888750 0.112500 1.006522
v -0.888750 1.762500 1.006522
v -0.888750 1.762500 0.950000
v -0.888750 0.112500 0.950000
v -0.937500 0.112500 1.006522
v -0.937500 1.762500 1.006522
v 0.881250 1.762500 0.999022
v 0.881250 0.112500 0.999022
v 0.881250 0.112500 0.957500
v 0.881250 1.762500 0.957500
v 0.888750 0.112500 1.006522
v 0.888750 1.762500 1.006522
v 0.937500 1.762500 1.006522
v 0.937500 0.112500 1.006522
v 0.888750 0.112500 0.950000
v 0.888750 1.762500 0.950000
vn -0.0000 -0.0000 1.0000
vn -0.0000 1.0000 -0.0000
vn -0.0000 0.0003 -1.0000
vn -0.0000 -1.0000 -0.0000
vn 0.0002 -1.0000 -0.0000
vn -0.0000 -0.0000 -1.0000
vn -0.0002 -0.0000 1.0000
vn -0.0000 1.0000 0.0019
vn -0.0002 -1.0000 -0.0000
vn 1.0000 -0.0000 -0.0000
vn 0.7071 -0.0000 0.7071
vn 0.7071 -0.0000 -0.7071
vn -1.0000 -0.0000 -0.0000
vn -0.7071 -0.0000 0.7071
vn -0.7071 -0.0000 -0.7071
vt 0.000000 0.000000
vt 0.000000 1.000000
vt 1.000000 1.000000
vt 1.000000 0.000000
vt -0.000000 0.479000
vt -0.000000 0.061448
vt 1.000000 0.521000
vt 1.000000 0.479000
vt 1.000000 0.061448
vt -0.000000 0.521000
vt 0.066667 0.525000
vt 0.933333 0.525000
vt 1.000000 0.479000
vt -0.000000 0.938552
vt 0.000000 0.479000
vt 1.000000 0.938552
vt 0.000000 0.521000
vt 1.000000 0.521000
vt 0.066667 0.525000
vt 0.933333 0.525000
vt -0.000000 0.944000
vt 1.000000 0.944000
vt 1.000000 0.996000
vt -0.000000 0.996000
vt -0.000000 1.001526
vt 1.000000 1.001526
vt 1.000000 0.056000
vt -0.000000 0.056000
vt -0.000000 0.004000
vt 1.000000 0.004000
vt 1.000000 -0.001526
vt -0.000000 -0.001526
vt 0.060000 0.481635
vt 0.060000 0.530948
vt 0.060000 0.518365
vt 0.940000 0.518365
vt 0.940000 0.481635
vt 0.940000 0.530948
vt 0.940000 0.526000
vt 0.060000 0.526000
vt 0.118667 0.525000
vt 0.881333 0.525000
vt 0.940000 0.500000
vt 0.060000 0.500000
vt 0.940000 0.481635
vt 0.060000 0.469052
vt 0.060000 0.481635
vt 0.940000 0.469052
vt 0.060000 0.518365
vt 0.940000 0.518365
vt 0.940000 0.474000
vt 0.060000 0.474000
vt 0.060000 0.500000
vt 0.940000 0.500000
vt 0.118667 0.525000
vt 0.881333 0.525000
s 1
usemtl StoneWall01.001
f 1/1/1 3/3/1 2/2/1
f 1/1/1 4/4/1 3/3/1
usemtl WoodRough03.001
f 5/5/2 7/8/2 6/7/2
f 5/5/2 6/7/2 8/10/2
f 6/7/2 9/11/3 8/10/2
f 6/7/2 10/12/3 9/11/3
f 11/13/4 13/17/4 12/15/4
f 11/13/4 14/18/5 13/17/4
f 14/18/5 15/19/6 13/17/4
f 14/18/5 16/20/6 15/19/6
f 12/16/4 17/21/1 11/14/4
f 12/16/4 18/22/1 17/21/1
f 17/21/1 18/22/1 19/23/7
f 17/21/1 19/23/7 20/24/1
f 21/25/8 20/24/1 19/23/7
f 21/25/8 19/23/7 22/26/8
f 5/6/2 23/27/1 7/9/2
f 5/6/2 24/28/1 23/27/1
f 25/29/1 23/27/1 24/28/1
f 25/29/1 26/30/1 23/27/1
f 27/31/9 26/30/1 25/29/1
f 27/31/9 25/29/1 28/32/4
f 29/33/10 31/36/10 30/35/10
f 29/33/10 32/37/10 31/36/10
f 29/34/11 33/39/11 32/38/11
f 29/34/11 34/40/11 33/39/11
f 31/36/12 35/41/12 30/35/12
f 31/36/12 36/42/12 35/41/12
f 33/39/1 38/44/1 37/43/1
f 33/39/1 34/40/1 38/44/1
f 39/45/13 41/49/13 40/47/13
f 39/45/13 42/50/13 41/49/13
f 43/51/1 45/53/1 44/52/1
f 43/51/1 46/54/1 45/53/1
f 40/48/14 44/52/14 39/46/14
f 40/48/14 43/51/14 44/52/14
f 42/50/15 47/55/15 41/49/15
f 42/50/15 48/56/15 47/55/15
o IntWall02a__3_
v 0.937500 0.000000 -0.925000
v 0.937500 1.875000 -0.925000
v -0.937500 1.875000 -0.925000
v -0.937500 0.000000 -0.925000
v 0.937500 0.112500 -1.011250
v -0.937500 0.112500 -0.932500
v -0.937500 0.112500 -1.011250
v 0.937500 0.112500 -0.932500
v 0.937500 0.105000 -0.925000
v -0.937500 0.105000 -0.925000
v 0.937500 1.762500 -1.011250
v -0.937500 1.762500 -1.011250
v -0.937500 1.762500 -0.921871
v 0.937500 1.762500 -0.921871
v -0.937500 1.770000 -0.914371
v 0.937500 1.770000 -0.914370
v 0.937500 1.770000 -1.018750
v -0.937500 1.770000 -1.018750
v -0.937500 1.867500 -1.018750
v 0.937500 1.867500 -1.018750
v 0.937500 1.875000 -1.011250
v -0.937500 1.875000 -1.011250
v -0.937500 0.105000 -1.018750
v 0.937500 0.105000 -1.018750
v 0.937500 0.007500 -1.018750
v -0.937500 0.007500 -1.018750
v -0.937500 0.000000 -1.011250
v 0.937500 0.000000 -1.011250
v 0.881250 1.762500 -0.974022
v 0.881250 1.762500 -0.932500
v 0.881250 0.112500 -0.932500
v 0.881250 0.112500 -0.974022
v 0.888750 0.112500 -0.981522
v 0.888750 1.762500 -0.981522
v 0.888750 1.762500 -0.925000
v 0.888750 0.112500 -0.925000
v 0.937500 0.112500 -0.981522
v 0.937500 1.762500 -0.981522
v -0.881250 1.762500 -0.974022
v -0.881250 0.112500 -0.974022
v -0.881250 0.112500 -0.932500
v -0.881250 1.762500 -0.932500
v -0.888750 0.112500 -0.981522
v -0.888750 1.762500 -0.981522
v -0.937500 1.762500 -0.981522
v -0.937500 0.112500 -0.981522
v -0.888750 0.112500 -0.925000
v -0.888750 1.762500 -0.925000
vn -0.0000 -0.0000 -1.0000
vn -0.0000 1.0000 -0.0000
vn -0.0000 0.0003 1.0000
vn -0.0000 -1.0000 -0.0000
vn -0.0002 -1.0000 -0.0000
vn -0.0000 -0.0000 1.0000
vn 0.0002 -0.0000 -1.0000
vn -0.0000 1.0000 -0.0019
vn 0.0002 -1.0000 -0.0000
vn -1.0000 -0.0000 -0.0000
vn -0.7071 -0.0000 -0.7071
vn -0.7071 -0.0000 0.7071
vn 1.0000 -0.0000 -0.0000
vn 0.7071 -0.0000 -0.7071
vn 0.7071 -0.0000 0.7071
vt 0.000000 0.000000
vt 0.000000 1.000000
vt 1.000000 1.000000
vt 1.000000 0.000000
vt -0.000000 0.479000
vt -0.000000 0.061448
vt 1.000000 0.521000
vt 1.000000 0.479000
vt 1.000000 0.061448
vt -0.000000 0.521000
vt 0.066667 0.525000
vt 0.933333 0.525000
vt 1.000000 0.479000
vt -0.000000 0.938552
vt 0.000000 0.479000
vt 1.000000 0.938552
vt 0.000000 0.521000
vt 1.000000 0.521000
vt 0.066667 0.525000
vt 0.933333 0.525000
vt -0.000000 0.944000
vt 1.000000 0.944000
vt 1.000000 0.996000
vt -0.000000 0.996000
vt -0.000000 1.001526
vt 1.000000 1.001526
vt 1.000000 0.056000
vt -0.000000 0.056000
vt -0.000000 0.004000
vt 1.000000 0.004000
vt 1.000000 -0.001526
vt -0.000000 -0.001526
vt 0.060000 0.481635
vt 0.060000 0.530948
vt 0.060000 0.518365
vt 0.940000 0.518365
vt 0.940000 0.481635
vt 0.940000 0.530948
vt 0.940000 0.526000
vt 0.060000 0.526000
vt 0.118667 0.525000
vt 0.881333 0.525000
vt 0.940000 0.500000
vt 0.060000 0.500000
vt 0.940000 0.481635
vt 0.060000 0.469052
vt 0.060000 0.481635
vt 0.940000 0.469052
vt 0.060000 0.518365
vt 0.940000 0.518365
vt 0.940000 0.474000
vt 0.060000 0.474000
vt 0.060000 0.500000
vt 0.940000 0.500000
vt 0.118667 0.525000
vt 0.881333 0.525000
s 1
usemtl StoneWall01.001
f 49/57/16 51/59/16 50/58/16
f 49/57/16 52/60/16 51/59/16
usemtl WoodRough03.001
f 53/61/17 55/64/17 54/63/17
f 53/61/17 54/63/17 56/66/17
f 54/63/17 57/67/18 56/66/17
f 54/63/17 58/68/18 57/67/18
f 59/69/19 61/73/19 60/71/19
f 59/69/19 62/74/20 61/73/19
f 62/74/20 63/75/21 61/73/19
f 62/74/20 64/76/21 63/75/21
f 60/72/19 65/77/16 59/70/19
f 60/72/19 66/78/16 65/77/16
f 65/77/16 66/78/16 67/79/22
f 65/77/16 67/79/22 68/80/16
f 69/81/23 68/80/16 67/79/22
f 69/81/23 67/79/22 70/82/23
f 53/62/17 71/83/16 55/65/17
f 53/62/17 72/84/16 71/83/16
f 73/85/16 71/83/16 72/84/16
f 73/85/16 74/86/16 71/83/16
f 75/87/24 74/86/16 73/85/16
f 75/87/24 73/85/16 76/88/19
f 77/89/25 79/92/25 78/91/25
f 77/89/25 80/93/25 79/92/25
f 77/90/26 81/95/26 80/94/26
f 77/90/26 82/96/26 81/95/26
f 79/92/27 83/97/27 78/91/27
f 79/92/27 84/98/27 83/97/27
f 81/95/16 86/100/16 85/99/16
f 81/95/16 82/96/16 86/100/16
f 87/101/28 89/105/28 88/103/28
f 87/101/28 90/106/28 89/105/28
f 91/107/16 93/109/16 92/108/16
f 91/107/16 94/110/16 93/109/16
f 88/104/29 92/108/29 87/102/29
f 88/104/29 91/107/29 92/108/29
f 90/106/30 95/111/30 89/105/30
f 90/106/30 96/112/30 95/111/30
o IntWall02a__1_
v -0.937500 0.000000 -0.925000
v -0.937500 1.875000 -0.925000
v -0.937500 1.875000 0.950000
v -0.937500 0.000000 0.950000
v -1.023750 0.112500 -0.925000
v -0.945000 0.112500 0.950000
v -1.023750 0.112500 0.950000
v -0.945000 0.112500 -0.925000
v -0.937500 0.105000 -0.925000
v -0.937500 0.105000 0.950000
v -1.023750 1.762500 -0.925000
v -1.023750 1.762500 0.950000
v -0.934371 1.762500 0.950000
v -0.934371 1.762500 -0.925000
v -0.926871 1.770000 0.950000
v -0.926871 1.770000 -0.925000
v -1.031250 1.770000 -0.925000
v -1.031250 1.770000 0.950000
v -1.031250 1.867500 0.950000
v -1.031250 1.867500 -0.925000
v -1.023750 1.875000 -0.925000
v -1.023750 1.875000 0.950000
v -1.031250 0.105000 0.950000
v -1.031250 0.105000 -0.925000
v -1.031250 0.007500 -0.925000
v -1.031250 0.007500 0.950000
v -1.023750 0.000000 0.950000
v -1.023750 0.000000 -0.925000
v -0.986522 1.762500 -0.868750
v -0.945000 1.762500 -0.868750
v -0.945000 0.112500 -0.868750
v -0.986522 0.112500 -0.868750
v -0.994022 0.112500 -0.876250
v -0.994022 1.762500 -0.876250
v -0.937500 1.762500 -0.876250
v -0.937500 0.112500 -0.876250
v -0.994022 0.112500 -0.925000
v -0.994022 1.762500 -0.925000
v -0.986522 1.762500 0.893750
v -0.986522 0.112500 0.893750
v -0.945000 0.112500 0.893750
v -0.945000 1.762500 0.893750
v -0.994022 0.112500 0.901250
v -0.994022 1.762500 0.901250
v -0.994022 1.762500 0.950000
v -0.994022 0.112500 0.950000
v -0.937500 0.112500 0.901250
v -0.937500 1.762500 0.901250
vn -1.0000 -0.0000 -0.0000
vn -0.0000 1.0000 -0.0000
vn 1.0000 0.0003 -0.0000
vn -0.0000 -1.0000 -0.0000
vn -0.0000 -1.0000 0.0002
vn 1.0000 -0.0000 -0.0000
vn -1.0000 -0.0000 -0.0002
vn -0.0019 1.0000 -0.0000
vn -0.0000 -1.0000 -0.0002
vn -0.0000 -0.0000 1.0000
vn -0.7071 -0.0000 0.7071
vn 0.7071 -0.0000 0.7071
vn -0.0000 -0.0000 -1.0000
vn -0.7071 -0.0000 -0.7071
vn 0.7071 -0.0000 -0.7071
vt 0.000000 0.000000
vt 0.000000 1.000000
vt 1.000000 1.000000
vt 1.000000 0.000000
vt -0.000000 0.479000
vt -0.000000 0.061448
vt 1.000000 0.521000
vt 1.000000 0.479000
vt 1.000000 0.061448
vt -0.000000 0.521000
vt 0.066667 0.525000
vt 0.933333 0.525000
vt 1.000000 0.479000
vt -0.000000 0.938552
vt 0.000000 0.479000
vt 1.000000 0.938552
vt 0.000000 0.521000
vt 1.000000 0.521000
vt 0.066667 0.525000
vt 0.933333 0.525000
vt -0.000000 0.944000
vt 1.000000 0.944000
vt 1.000000 0.996000
vt -0.000000 0.996000
vt -0.000000 1.001526
vt 1.000000 1.001526
vt 1.000000 0.056000
vt -0.000000 0.056000
vt -0.000000 0.004000
vt 1.000000 0.004000
vt 1.000000 -0.001526
vt -0.000000 -0.001526
vt 0.060000 0.481635
vt 0.060000 0.530948
vt 0.060000 0.518365
vt 0.940000 0.518365
vt 0.940000 0.481635
vt 0.940000 0.530948
vt 0.940000 0.526000
vt 0.060000 0.526000
vt 0.118667 0.525000
vt 0.881333 0.525000
vt 0.940000 0.500000
vt 0.060000 0.500000
vt 0.940000 0.481635
vt 0.060000 0.469052
vt 0.060000 0.481635
vt 0.940000 0.469052
vt 0.060000 0.518365
vt 0.940000 0.518365
vt 0.940000 0.474000
vt 0.060000 0.474000
vt 0.060000 0.500000
vt 0.940000 0.500000
vt 0.118667 0.525000
vt 0.881333 0.525000
s 1
usemtl StoneWall01.001
f 97/113/31 99/115/31 98/114/31
f 97/113/31 100/116/31 99/115/31
usemtl WoodRough03.001
f 101/117/32 103/120/32 102/119/32
f 101/117/32 102/119/32 104/122/32
f 102/119/32 105/123/33 104/122/32
f 102/119/32 106/124/33 105/123/33
f 107/125/34 109/129/34 108/127/34
f 107/125/34 110/130/35 109/129/34
f 110/130/35 111/131/36 109/129/34
f 110/130/35 112/132/36 111/131/36
f 108/128/34 113/133/31 107/126/34
f 108/128/34 114/134/31 113/133/31
f 113/133/31 114/134/31 115/135/37
f 113/133/31 115/135/37 116/136/31
f 117/137/38 116/136/31 115/135/37
f 117/137/38 115/135/37 118/138/38
f 101/118/32 119/139/31 103/121/32
f 101/118/32 120/140/31 119/139/31
f 121/141/31 119/139/31 120/140/31
f 121/141/31 122/142/31 119/139/31
f 123/143/39 122/142/31 121/141/31
f 123/143/39 121/141/31 124/144/34
f 125/145/40 127/148/40 126/147/40
f 125/145/40 128/149/40 127/148/40
f 125/146/41 129/151/41 128/150/41
f 125/146/41 130/152/41 129/151/41
f 127/148/42 131/153/42 126/147/42
f 127/148/42 132/154/42 131/153/42
f 129/151/31 134/156/31 133/155/31
f 129/151/31 130/152/31 134/156/31
f 135/157/43 137/161/43 136/159/43
f 135/157/43 138/162/43 137/161/43
f 139/163/31 141/165/31 140/164/31
f 139/163/31 142/166/31 141/165/31
f 136/160/44 140/164/44 135/158/44
f 136/160/44 139/163/44 140/164/44
f 138/162/45 143/167/45 137/161/45
f 138/162/45 144/168/45 143/167/45
o IntWall02a__2_
v 0.937500 0.000000 0.950000
v 0.937500 1.875000 0.950000
v 0.937500 1.875000 -0.925000
v 0.937500 0.000000 -0.925000
v 1.023750 0.112500 0.950000
v 0.945000 0.112500 -0.925000
v 1.023750 0.112500 -0.925000
v 0.945000 0.112500 0.950000
v 0.937500 0.105000 0.950000
v 0.937500 0.105000 -0.925000
v 1.023750 1.762500 0.950000
v 1.023750 1.762500 -0.925000
v 0.934371 1.762500 -0.925000
v 0.934371 1.762500 0.950000
v 0.926871 1.770000 -0.925000
v 0.926871 1.770000 0.950000
v 1.031250 1.770000 0.950000
v 1.031250 1.770000 -0.925000
v 1.031250 1.867500 -0.925000
v 1.031250 1.867500 0.950000
v 1.023750 1.875000 0.950000
v 1.023750 1.875000 -0.925000
v 1.031250 0.105000 -0.925000
v 1.031250 0.105000 0.950000
v 1.031250 0.007500 0.950000
v 1.031250 0.007500 -0.925000
v 1.023750 0.000000 -0.925000
v 1.023750 0.000000 0.950000
v 0.986522 1.762500 0.893750
v 0.945000 1.762500 0.893750
v 0.945000 0.112500 0.893750
v 0.986522 0.112500 0.893750
v 0.994022 0.112500 0.901250
v 0.994022 1.762500 0.901250
v 0.937500 1.762500 0.901250
v 0.937500 0.112500 0.901250
v 0.994022 0.112500 0.950000
v 0.994022 1.762500 0.950000
v 0.986522 1.762500 -0.868750
v 0.986522 0.112500 -0.868750
v 0.945000 0.112500 -0.868750
v 0.945000 1.762500 -0.868750
v 0.994022 0.112500 -0.876250
v 0.994022 1.762500 -0.876250
v 0.994022 1.762500 -0.925000
v 0.994022 0.112500 -0.925000
v 0.937500 0.112500 -0.876250
v 0.937500 1.762500 -0.876250
vn 1.0000 -0.0000 -0.0000
vn -0.0000 1.0000 -0.0000
vn -1.0000 0.0003 -0.0000
vn -0.0000 -1.0000 -0.0000
vn -0.0000 -1.0000 -0.0002
vn -1.0000 -0.0000 -0.0000
vn 1.0000 -0.0000 0.0002
vn 0.0019 1.0000 -0.0000
vn -0.0000 -1.0000 0.0002
vn -0.0000 -0.0000 -1.0000
vn 0.7071 -0.0000 -0.7071
vn -0.7071 -0.0000 -0.7071
vn -0.0000 -0.0000 1.0000
vn 0.7071 -0.0000 0.7071
vn -0.7071 -0.0000 0.7071
vt 0.000000 0.000000
vt 0.000000 1.000000
vt 1.000000 1.000000
vt 1.000000 0.000000
vt -0.000000 0.479000
vt -0.000000 0.061448
vt 1.000000 0.521000
vt 1.000000 0.479000
vt 1.000000 0.061448
vt -0.000000 0.521000
vt 0.066667 0.525000
vt 0.933333 0.525000
vt 1.000000 0.479000
vt -0.000000 0.938552
vt 0.000000 0.479000
vt 1.000000 0.938552
vt 0.000000 0.521000
vt 1.000000 0.521000
vt 0.066667 0.525000
vt 0.933333 0.525000
vt -0.000000 0.944000
vt 1.000000 0.944000
vt 1.000000 0.996000
vt -0.000000 0.996000
vt -0.000000 1.001526
vt 1.000000 1.001526
vt 1.000000 0.056000
vt -0.000000 0.056000
vt -0.000000 0.004000
vt 1.000000 0.004000
vt 1.000000 -0.001526
vt -0.000000 -0.001526
vt 0.060000 0.481635
vt 0.060000 0.530948
vt 0.060000 0.518365
vt 0.940000 0.518365
vt 0.940000 0.481635
vt 0.940000 0.530948
vt 0.940000 0.526000
vt 0.060000 0.526000
vt 0.118667 0.525000
vt 0.881333 0.525000
vt 0.940000 0.500000
vt 0.060000 0.500000
vt 0.940000 0.481635
vt 0.060000 0.469052
vt 0.060000 0.481635
vt 0.940000 0.469052
vt 0.060000 0.518365
vt 0.940000 0.518365
vt 0.940000 0.474000
vt 0.060000 0.474000
vt 0.060000 0.500000
vt 0.940000 0.500000
vt 0.118667 0.525000
vt 0.881333 0.525000
s 1
usemtl StoneWall01.001
f 145/169/46 147/171/46 146/170/46
f 145/169/46 148/172/46 147/171/46
usemtl WoodRough03.001
f 149/173/47 151/176/47 150/175/47
f 149/173/47 150/175/47 152/178/47
f 150/175/47 153/179/48 152/178/47
f 150/175/47 154/180/48 153/179/48
f 155/181/49 157/185/49 156/183/49
f 155/181/49 158/186/50 157/185/49
f 158/186/50 159/187/51 157/185/49
f 158/186/50 160/188/51 159/187/51
f 156/184/49 161/189/46 155/182/49
f 156/184/49 162/190/46 161/189/46
f 161/189/46 162/190/46 163/191/52
f 161/189/46 163/191/52 164/192/46
f 165/193/53 164/192/46 163/191/52
f 165/193/53 163/191/52 166/194/53
f 149/174/47 167/195/46 151/177/47
f 149/174/47 168/196/46 167/195/46
f 169/197/46 167/195/46 168/196/46
f 169/197/46 170/198/46 167/195/46
f 171/199/54 170/198/46 169/197/46
f 171/199/54 169/197/46 172/200/49
f 173/201/55 175/204/55 174/203/55
f 173/201/55 176/205/55 175/204/55
f 173/202/56 177/207/56 176/206/56
f 173/202/56 178/208/56 177/207/56
f 175/204/57 179/209/57 174/203/57
f 175/204/57 180/210/57 179/209/57
f 177/207/46 182/212/46 181/211/46
f 177/207/46 178/208/46 182/212/46
f 183/213/58 185/217/58 184/215/58
f 183/213/58 186/218/58 185/217/58
f 187/219/46 189/221/46 188/220/46
f 187/219/46 190/222/46 189/221/46
f 184/216/59 188/220/59 183/214/59
f 184/216/59 187/219/59 188/220/59
f 186/218/60 191/223/60 185/217/60
f 186/218/60 192/224/60 191/223/60
o HorizontalPillar
v -1.017229 0.000000 0.908917
v -0.899672 -0.000000 0.908917
v -0.899666 1.875000 0.908918
v -1.017223 1.875000 0.908917
v -0.899667 1.875000 1.043584
v -0.899673 0.000000 1.043583
v -1.017230 0.000000 1.043583
v -1.017223 1.875000 1.043584
v -0.891751 -0.000000 0.916839
v -0.891751 -0.000000 1.035662
v -0.891745 1.874999 1.035663
v -0.891745 1.874999 0.916839
v -1.025145 1.875000 0.916839
v -1.025152 0.000001 1.035662
v -1.025152 0.000001 0.916838
v -1.025146 1.875000 1.035662
vn -0.0000 -0.0000 -1.0000
vn 0.0030 -0.0000 -1.0000
vn 0.0020 -0.0000 1.0000
vn -0.0000 -0.0000 1.0000
vn 0.0040 0.0001 1.0000
vn 1.0000 -0.0000 -0.0000
vn 1.0000 0.0002 -0.0000
vn -1.0000 -0.0002 -0.0000
vn -1.0000 -0.0000 -0.0000
vt 0.974774 0.981143
vt 0.974774 0.725778
vt 0.974774 0.915453
vt 0.094774 0.915516
vt 0.094774 0.915452
vt 0.974774 0.915516
vt 0.094774 0.981143
vt 0.094774 0.725778
vt 0.974774 0.787697
vt 0.974774 0.853620
vt 0.094774 0.787698
vt 0.094774 0.853620
vt 0.094774 0.853388
vt 0.974774 0.787675
vt 0.974774 0.853388
vt 0.094774 0.787675
vt 0.094774 0.910568
vt 0.094774 0.858568
vt 0.974774 0.858568
vt 0.974774 0.910568
vt 0.094774 0.730727
vt 0.974774 0.782727
vt 0.974774 0.730727
vt 0.094774 0.782727
s 1
usemtl WoodRough03.001
f 193/225/61 195/229/62 194/227/62
f 193/225/61 196/231/61 195/229/62
f 197/233/63 199/237/64 198/235/65
f 197/233/63 200/239/64 199/237/64
f 201/241/66 203/243/67 202/242/66
f 201/241/66 204/244/66 203/243/67
f 195/230/62 204/244/66 201/241/66
f 195/230/62 201/241/66 194/228/62
f 198/236/65 203/243/67 197/234/63
f 198/236/65 202/242/66 203/243/67
f 205/245/68 207/247/69 206/246/69
f 205/245/68 206/246/69 208/248/69
f 200/240/64 208/248/69 206/246/69
f 200/240/64 206/246/69 199/238/64
f 193/226/61 205/245/68 196/232/61
f 193/226/61 207/247/69 205/245/68
o HorizontalPillar__1_
v -1.017229 0.000001 -1.018583
v -0.899672 0.000000 -1.018583
v -0.899666 1.875000 -1.018582
v -1.017223 1.875000 -1.018583
v -0.899667 1.875000 -0.883916
v -0.899673 0.000000 -0.883917
v -1.017230 0.000001 -0.883917
v -1.017223 1.875000 -0.883916
v -0.891751 0.000000 -1.010661
v -0.891751 0.000000 -0.891838
v -0.891745 1.875000 -0.891837
v -0.891745 1.875000 -1.010661
v -1.025145 1.875001 -1.010661
v -1.025152 0.000001 -0.891839
v -1.025152 0.000001 -1.010662
v -1.025146 1.875001 -0.891838
vn -0.0000 -0.0000 -1.0000
vn 0.0030 -0.0000 -1.0000
vn 0.0020 -0.0000 1.0000
vn -0.0000 -0.0000 1.0000
vn 0.0040 0.0001 1.0000
vn 1.0000 -0.0000 -0.0000
vn 1.0000 0.0002 -0.0000
vn -1.0000 -0.0002 -0.0000
vn -1.0000 -0.0000 -0.0000
vt 0.974774 0.981143
vt 0.974774 0.725778
vt 0.974774 0.915453
vt 0.094774 0.915516
vt 0.094774 0.915452
vt 0.974774 0.915516
vt 0.094774 0.981143
vt 0.094774 0.725778
vt 0.974774 0.787697
vt 0.974774 0.853620
vt 0.094774 0.787698
vt 0.094774 0.853620
vt 0.094774 0.853388
vt 0.974774 0.787675
vt 0.974774 0.853388
vt 0.094774 0.787675
vt 0.094774 0.910568
vt 0.094774 0.858568
vt 0.974774 0.858568
vt 0.974774 0.910568
vt 0.094774 0.730727
vt 0.974774 0.782727
vt 0.974774 0.730727
vt 0.094774 0.782727
s 1
usemtl WoodRough03.001
f 209/249/70 211/253/71 210/251/71
f 209/249/70 212/255/70 211/253/71
f 213/257/72 215/261/73 214/259/74
f 213/257/72 216/263/73 215/261/73
f 217/265/75 219/267/76 218/266/75
f 217/265/75 220/268/75 219/267/76
f 211/254/71 220/268/75 217/265/75
f 211/254/71 217/265/75 210/252/71
f 214/260/74 219/267/76 213/258/72
f 214/260/74 218/266/75 219/267/76
f 221/269/77 223/271/78 222/270/78
f 221/269/77 222/270/78 224/272/78
f 216/264/73 224/272/78 222/270/78
f 216/264/73 222/270/78 215/262/73
f 209/250/70 221/269/77 212/256/70
f 209/250/70 223/271/78 221/269/77
o HorizontalPillar__2_
v 0.906520 0.000001 -1.018583
v 1.024078 0.000000 -1.018583
v 1.024084 1.875000 -1.018582
v 0.906527 1.875000 -1.018583
v 1.024083 1.875000 -0.883916
v 1.024077 0.000000 -0.883917
v 0.906520 0.000001 -0.883917
v 0.906527 1.875000 -0.883916
v 1.031999 0.000000 -1.010661
v 1.031999 0.000000 -0.891838
v 1.032005 1.875000 -0.891837
v 1.032005 1.875000 -1.010661
v 0.898604 1.875001 -1.010661
v 0.898597 0.000001 -0.891839
v 0.898598 0.000001 -1.010662
v 0.898604 1.875001 -0.891838
vn -0.0000 -0.0000 -1.0000
vn 0.0030 -0.0000 -1.0000
vn 0.0020 -0.0000 1.0000
vn -0.0000 -0.0000 1.0000
vn 0.0040 0.0001 1.0000
vn 1.0000 -0.0000 -0.0000
vn 1.0000 0.0002 -0.0000
vn -1.0000 -0.0002 -0.0000
vn -1.0000 -0.0000 -0.0000
vt 0.974774 0.981143
vt 0.974774 0.725778
vt 0.974774 0.915453
vt 0.094774 0.915516
vt 0.094774 0.915452
vt 0.974774 0.915516
vt 0.094774 0.981143
vt 0.094774 0.725778
vt 0.974774 0.787697
vt 0.974774 0.853620
vt 0.094774 0.787698
vt 0.094774 0.853620
vt 0.094774 0.853388
vt 0.974774 0.787675
vt 0.974774 0.853388
vt 0.094774 0.787675
vt 0.094774 0.910568
vt 0.094774 0.858568
vt 0.974774 0.858568
vt 0.974774 0.910568
vt 0.094774 0.730727
vt 0.974774 0.782727
vt 0.974774 0.730727
vt 0.094774 0.782727
s 1
usemtl WoodRough03.001
f 225/273/79 227/277/80 226/275/80
f 225/273/79 228/279/79 227/277/80
f 229/281/81 231/285/82 230/283/83
f 229/281/81 232/287/82 231/285/82
f 233/289/84 235/291/85 234/290/84
f 233/289/84 236/292/84 235/291/85
f 227/278/80 236/292/84 233/289/84
f 227/278/80 233/289/84 226/276/80
f 230/284/83 235/291/85 229/282/81
f 230/284/83 234/290/84 235/291/85
f 237/293/86 239/295/87 238/294/87
f 237/293/86 238/294/87 240/296/87
f 232/288/82 240/296/87 238/294/87
f 232/288/82 238/294/87 231/286/82
f 225/274/79 237/293/86 228/280/79
f 225/274/79 239/295/87 237/293/86
o HorizontalPillar__3_
v 0.906520 0.000000 0.908917
v 1.024078 -0.000000 0.908917
v 1.024084 1.875000 0.908918
v 0.906527 1.875000 0.908917
v 1.024083 1.875000 1.043584
v 1.024077 0.000000 1.043583
v 0.906520 0.000000 1.043583
v 0.906527 1.875000 1.043584
v 1.031999 -0.000000 0.916839
v 1.031999 -0.000000 1.035662
v 1.032005 1.874999 1.035663
v 1.032005 1.874999 0.916839
v 0.898604 1.875000 0.916839
v 0.898597 0.000001 1.035662
v 0.898598 0.000001 0.916838
v 0.898604 1.875000 1.035662
vn -0.0000 -0.0000 -1.0000
vn 0.0030 -0.0000 -1.0000
vn 0.0020 -0.0000 1.0000
vn -0.0000 -0.0000 1.0000
vn 0.0040 0.0001 1.0000
vn 1.0000 -0.0000 -0.0000
vn 1.0000 0.0002 -0.0000
vn -1.0000 -0.0002 -0.0000
vn -1.0000 -0.0000 -0.0000
vt 0.974774 0.981143
vt 0.974774 0.725778
vt 0.974774 0.915453
vt 0.094774 0.915516
vt 0.094774 0.915452
vt 0.974774 0.915516
vt 0.094774 0.981143
vt 0.094774 0.725778
vt 0.974774 0.787697
vt 0.974774 0.853620
vt 0.094774 0.787698
vt 0.094774 0.853620
vt 0.094774 0.853388
vt 0.974774 0.787675
vt 0.974774 0.853388
vt 0.094774 0.787675
vt 0.094774 0.910568
vt 0.094774 0.858568
vt 0.974774 0.858568
vt 0.974774 0.910568
vt 0.094774 0.730727
vt 0.974774 0.782727
vt 0.974774 0.730727
vt 0.094774 0.782727
s 1
usemtl WoodRough03.001
f 241/297/88 243/301/89 242/299/89
f 241/297/88 244/303/88 243/301/89
f 245/305/90 247/309/91 246/307/92
f 245/305/90 248/311/91 247/309/91
f 249/313/93 251/315/94 250/314/93
f 249/313/93 252/316/93 251/315/94
f 243/302/89 252/316/93 249/313/93
f 243/302/89 249/313/93 242/300/89
f 246/308/92 251/315/94 245/306/90
f 246/308/92 250/314/93 251/315/94
f 253/317/95 255/319/96 254/318/96
f 253/317/95 254/318/96 256/320/96
f 248/312/91 256/320/96 254/318/96
f 248/312/91 254/318/96 247/310/91
f 241/298/88 253/317/95 244/304/88
f 241/298/88 255/319/96 253/317/95
