# Blender 3.4.1
# www.blender.org
mtllib Stair.mtl
o pCube1
v 1.000000 2.000000 1.000000
v 1.000000 0.000000 1.000000
v -1.000000 0.000000 1.000000
v -1.000000 2.000000 1.000000
v 1.000000 0.000000 -1.000000
v -1.000000 0.000000 -1.000000
v -0.999999 2.000001 0.497299
v -1.000000 1.552083 0.497300
v -1.000000 1.031572 0.006417
v -0.999999 1.500001 0.006416
v -1.000000 0.559494 -0.502679
v -0.999999 0.500001 -1.000000
v -0.999999 1.000001 -0.502679
v 1.000000 1.553296 0.497300
v 1.000001 2.000001 0.497299
v 1.000000 0.557570 -0.502679
v 1.000001 1.000001 -0.502679
v 1.000000 1.031499 0.006417
v 1.000001 1.500001 0.006416
v 1.000002 0.500001 -1.000000
vn -0.0000 -0.0000 1.0000
vn -0.0000 -1.0000 -0.0000
vn -1.0000 -0.0000 -0.0000
vn -0.0002 0.7004 -0.7137
vn -0.0000 -0.0000 -1.0000
vn -0.0001 0.7007 -0.7134
vn 0.0003 0.7054 -0.7088
vn -0.0000 0.7326 -0.6807
vn 0.0001 0.7050 -0.7092
vn -0.0000 0.7135 -0.7007
vn -0.0000 0.6857 -0.7279
vn -0.0002 0.6857 -0.7279
vn -0.0000 0.7134 -0.7007
vn 0.0003 0.6650 -0.7469
vn 0.0005 0.6650 -0.7469
vn 0.9296 0.3687 -0.0000
vn -0.0000 1.0000 -0.0000
vn 1.0000 -0.0000 -0.0000
vt 2.983216 1.000302
vt 0.009039 1.989277
vt 2.986759 0.996585
vt 2.978999 0.008071
vt 0.996456 -0.000347
vt 2.988001 0.005343
vt 1.996408 0.012247
vt 0.004170 -0.001651
vt 1.998056 0.007605
vt 2.000625 1.004478
vt 1.993827 1.002707
vt 0.994234 1.990948
vt 0.997772 -1.002344
vt -0.005296 0.009267
vt 4.012540 0.006067
vt 0.005486 -1.003648
vt 1.002955 0.003376
vt 0.989569 0.000026
vt 1.743706 1.001644
vt 0.000750 0.762946
vt 0.994654 1.743412
vt 1.744653 0.778782
vt 0.001599 1.000066
vt 0.996816 1.745035
vt 1.501516 0.518761
vt 0.994709 0.505336
vt 0.996361 1.500325
vt 1.500525 0.751830
vt 0.997065 0.753307
vt 0.997227 1.503323
vt 1.249213 0.282803
vt 0.991705 0.268434
vt 0.995916 1.246014
vt 1.001898 0.252151
vt 0.992084 0.264710
vt 0.996332 1.001131
vt 1.248281 0.501978
vt 0.993920 0.501624
vt 0.996786 1.249642
vt 0.996505 0.996853
vt 0.011621 1.743364
vt 3.244552 0.775373
vt 0.995659 0.760377
vt 0.009460 1.741743
vt 3.244281 0.996767
vt -0.003171 0.276660
vt 0.010722 1.244343
vt 3.757430 0.282231
vt -0.000945 0.510865
vt 0.011592 1.247972
vt 3.757155 0.501508
vt -0.000157 0.514539
vt 0.011167 1.498654
vt 3.496345 0.516933
vt 0.002200 0.762550
vt 0.012032 1.501652
vt 3.496054 0.749134
vt -0.002782 0.273951
vt 0.011137 0.999460
vt 4.012230 0.253877
s 1
usemtl blinn2SG
f 1/1/1 3/7/1 2/4/1
f 1/1/1 4/10/1 3/7/1
f 2/5/2 6/16/2 5/13/2
f 2/5/2 3/8/2 6/16/2
f 7/19/3 3/9/3 4/11/3
f 3/9/3 7/19/3 8/22/3
f 9/25/3 3/9/3 8/22/3
f 10/28/3 9/25/3 8/22/3
f 3/9/3 9/25/3 6/17/3
f 6/17/3 9/25/3 11/31/3
f 6/17/3 11/31/3 12/34/3
f 13/37/3 11/31/3 9/25/3
f 14/40/4 7/20/5 15/43/5
f 14/40/4 8/23/6 7/20/5
f 16/46/7 13/38/8 17/49/8
f 16/46/7 11/32/9 13/38/8
f 18/52/10 10/29/11 19/55/12
f 18/52/10 9/26/13 10/29/11
f 5/14/5 12/35/14 20/58/15
f 5/14/5 6/18/5 12/35/14
f 20/59/15 11/33/9 16/47/7
f 20/59/15 12/36/14 11/33/9
f 17/50/8 9/27/13 18/53/10
f 17/50/8 13/39/8 9/27/13
f 19/56/12 8/24/6 14/41/4
f 19/56/12 10/30/11 8/24/6
f 1/2/16 7/21/17 4/12/17
f 1/2/16 15/44/16 7/21/17
f 5/15/18 1/3/16 2/6/18
f 1/3/16 5/15/18 18/54/18
f 1/3/16 18/54/18 14/42/18
f 15/45/16 1/3/16 14/42/18
f 19/57/18 14/42/18 18/54/18
f 18/54/18 5/15/18 16/48/18
f 17/51/18 18/54/18 16/48/18
f 16/48/18 5/15/18 20/60/18
