# Blender v3.2.0 OBJ File: 'switch.blend'
# www.blender.org
mtllib lever_cover.mtl
g cover
v -0.223176 0.052460 -0.371960
v 0.223176 0.052460 -0.371960
v -0.223176 0.052460 0.371960
v 0.223176 0.052460 0.371960
v -0.195099 0.124435 0.300413
v 0.195099 0.124435 0.300413
v -0.195099 0.229926 0.229926
v 0.195099 0.229926 0.229926
v -0.195099 0.300413 0.124435
v 0.195099 0.300413 0.124435
v -0.195099 0.325164 -0.000000
v 0.195099 0.325164 -0.000000
v -0.195099 0.300413 -0.124435
v 0.195099 0.300413 -0.124435
v -0.195099 0.229926 -0.229926
v 0.195099 0.229926 -0.229926
v -0.195099 0.124435 -0.300413
v 0.195099 0.124435 -0.300413
v -0.074392 0.052460 -0.371960
v -0.074392 0.052460 0.371960
v -0.065033 0.114680 0.276863
v -0.065033 0.211902 0.211902
v -0.065033 0.276863 0.114681
v -0.065033 0.299675 -0.000000
v -0.065033 0.276863 -0.114681
v -0.065033 0.211902 -0.211902
v -0.065033 0.114680 -0.276863
v 0.065033 0.114680 -0.276863
v 0.074392 0.052460 -0.371960
v 0.065033 0.211902 -0.211902
v 0.074392 0.052460 0.371960
v 0.065033 0.276863 -0.114681
v 0.065033 0.299675 -0.000000
v 0.065033 0.276863 0.114681
v 0.065033 0.211902 0.211902
v 0.065033 0.114680 0.276863
v -0.253488 0.052460 0.000000
v 0.253488 0.052460 0.000000
v 0.165033 0.000000 0.000000
v -0.165033 0.000000 0.000000
v 0.065033 0.124435 -0.300413
v 0.065033 0.229926 -0.229926
v 0.065033 -0.002462 -0.300164
v 0.065033 0.300413 -0.124435
v 0.065033 0.325164 -0.000000
v 0.065033 0.300413 0.124435
v 0.065033 0.229926 0.229926
v 0.065033 0.124435 0.300413
v 0.065033 -0.002462 0.300164
v -0.065033 0.229926 -0.229926
v -0.065033 0.124435 -0.300413
v -0.065033 0.300413 -0.124435
v -0.065033 -0.002462 -0.300164
v -0.065033 0.124435 0.300413
v -0.065033 -0.002462 0.300164
v -0.065033 0.325164 -0.000000
v -0.065033 0.300413 0.124435
v -0.065033 0.229926 0.229926
v 0.165033 0.114680 -0.276863
v 0.165033 -0.002462 -0.300164
v 0.165033 0.211902 -0.211902
v 0.165033 0.276863 -0.114681
v 0.165033 0.299675 -0.000000
v 0.165033 0.276863 0.114681
v 0.165033 0.211902 0.211902
v 0.165033 0.114680 0.276863
v 0.165033 -0.002462 0.300164
v -0.165033 0.211902 -0.211902
v -0.165033 0.114680 -0.276863
v -0.165033 -0.002462 -0.300164
v -0.165033 0.276863 -0.114681
v -0.165033 -0.002462 0.300164
v -0.165033 0.114680 0.276863
v -0.165033 0.299675 -0.000000
v -0.165033 0.276863 0.114681
v -0.165033 0.211902 0.211902
v -0.223176 -0.004736 -0.371960
v 0.223176 -0.004736 -0.371960
v -0.223176 -0.004736 0.371960
v 0.223176 -0.004736 0.371960
v -0.074392 -0.004736 -0.371960
v -0.074392 -0.004736 0.371960
v 0.074392 -0.004736 -0.371960
v 0.074392 -0.004736 0.371960
v -0.253488 -0.004736 0.000000
v 0.253488 -0.004736 0.000000
vt 0.309695 0.040730
vt 0.375477 0.096038
vt 0.304595 0.096038
vt 0.304595 0.165181
vt 0.375477 0.165181
vt 0.304595 0.234323
vt 0.375477 0.234323
vt 0.304595 0.303466
vt 0.375477 0.303466
vt 0.304595 0.372609
vt 0.375477 0.372609
vt 0.304595 0.441752
vt 0.375477 0.510895
vt 0.304595 0.510895
vt 0.309695 0.566202
vt 0.240299 0.644791
vt 0.443527 0.644782
vt 0.277973 0.688177
vt 0.567239 0.862992
vt 0.606569 0.919967
vt 0.441015 0.963362
vt 0.162829 0.510895
vt 0.228611 0.566202
vt 0.147527 0.566202
vt 0.162829 0.441752
vt 0.233712 0.510895
vt 0.233712 0.372609
vt 0.162829 0.372609
vt 0.233712 0.303466
vt 0.162829 0.303466
vt 0.233712 0.234323
vt 0.162829 0.234323
vt 0.233712 0.165181
vt 0.162829 0.165181
vt 0.233712 0.096038
vt 0.162829 0.096038
vt 0.228611 0.040730
vt 0.147527 0.040730
vt 0.748809 0.799052
vt 0.750151 0.962635
vt 0.686311 0.949936
vt 0.138838 0.799422
vt 0.289722 0.861920
vt 0.254319 0.914903
vt 0.644243 0.963352
vt 0.302153 0.799422
vt 0.254319 0.683940
vt 0.289722 0.736923
vt 0.317303 0.745152
vt 0.608847 0.689136
vt 0.646780 0.645962
vt 0.375181 0.783134
vt 0.569179 0.745887
vt 0.443089 0.796580
vt 0.511076 0.783532
vt 0.237762 0.962182
vt 0.275695 0.919008
vt 0.315362 0.862257
vt 0.373466 0.824612
vt 0.441453 0.811564
vt 0.509361 0.825010
vt 0.633327 0.914533
vt 0.597925 0.861550
vt 0.585493 0.799052
vt 0.597925 0.736554
vt 0.633327 0.683570
vt 0.686311 0.648168
vt 0.750151 0.635469
vt 0.201336 0.950306
vt 0.137496 0.963004
vt 0.137496 0.635839
vt 0.201336 0.648538
vt 0.470582 0.096381
vt 0.536840 0.080731
vt 0.523230 0.096381
vt 0.536840 0.147510
vt 0.536840 0.216343
vt 0.523230 0.147510
vt 0.536840 0.286510
vt 0.523230 0.216343
vt 0.536840 0.356043
vt 0.523230 0.286510
vt 0.523230 0.424101
vt 0.523230 0.356043
vt 0.536840 0.488482
vt 0.536840 0.424101
vt 0.457319 0.147510
vt 0.470582 0.147510
vt 0.536840 0.550893
vt 0.457319 0.488482
vt 0.470582 0.216343
vt 0.457319 0.216343
vt 0.470582 0.471077
vt 0.523230 0.471077
vt 0.470582 0.286510
vt 0.457319 0.286510
vt 0.457319 0.356043
vt 0.470582 0.356043
vt 0.470582 0.424101
vt 0.457319 0.424101
vt 0.457319 0.011877
vt 0.536840 0.011877
vt 0.591333 0.488482
vt 0.591333 0.424101
vt 0.591333 0.356043
vt 0.591333 0.286510
vt 0.591333 0.216343
vt 0.591333 0.147510
vt 0.591333 0.080731
vt 0.591333 0.011877
vt 0.591333 0.550893
vt 0.402667 0.550893
vt 0.402667 0.488482
vt 0.402667 0.424101
vt 0.402667 0.356043
vt 0.402667 0.286510
vt 0.402667 0.216343
vt 0.402667 0.147510
vt 0.457319 0.080731
vt 0.402667 0.080731
vt 0.402667 0.011877
vt 0.237586 0.993405
vt 0.443608 0.613632
vt 0.309695 0.009560
vt 0.147527 0.597373
vt 0.390779 0.566202
vt 0.309695 0.597373
vt 0.440933 0.994512
vt 0.646955 0.614739
vt 0.390779 0.009560
vt 0.390779 0.040730
vt 0.228611 0.009560
vt 0.228611 0.597373
vt 0.375477 0.441752
vt 0.233712 0.441752
vt 0.457319 0.550893
vt 0.240299 0.613632
vt 0.390779 0.597373
vt 0.644243 0.994512
vt 0.147527 0.009560
vn 0.0000 0.7050 0.7092
vn 0.0000 0.6392 0.7691
vn 0.0000 0.6579 0.7531
vn 0.0000 0.7071 0.7071
vn 0.0000 0.9239 0.3827
vn 0.0000 1.0000 -0.0000
vn 0.0000 0.9239 -0.3827
vn 0.0000 0.7071 -0.7071
vn 0.0000 0.6392 -0.7691
vn 0.0000 0.6579 -0.7531
vn 0.0000 0.7050 -0.7092
vn -0.9022 0.4250 -0.0735
vn -0.9776 0.2103 -0.0000
vn -0.9442 0.3106 -0.1091
vn 0.9801 0.1384 0.1421
vn 0.9442 0.3106 0.1091
vn 0.9776 0.2103 0.0000
vn 1.0000 -0.0000 -0.0000
vn -1.0000 0.0000 0.0000
vn 0.9022 0.4250 0.0735
vn -0.9801 0.1384 -0.1421
vn -0.9442 0.3106 0.1091
vn -0.9022 0.4250 0.0735
vn -0.9785 0.1901 -0.0804
vn -0.9801 0.1384 0.1421
vn -0.9778 0.2094 0.0000
vn -0.9785 0.1901 0.0804
vn 0.9022 0.4250 -0.0735
vn 0.9442 0.3106 -0.1091
vn 0.9801 0.1384 -0.1421
vn 0.9785 0.1901 -0.0804
vn 0.9778 0.2094 0.0000
vn 0.9785 0.1901 0.0804
vn 0.0000 -0.1951 -0.9808
vn 0.0000 -0.3207 -0.9472
vn -0.0000 -0.3207 0.9472
vn -0.0000 -0.1951 0.9808
vn 0.0000 -0.3827 -0.9239
vn 0.0000 -0.7071 -0.7071
vn 0.0000 -0.9239 -0.3827
vn 0.0000 -1.0000 0.0000
vn 0.0000 -0.9239 0.3827
vn 0.0000 -0.7071 0.7071
vn 0.0000 -0.3827 0.9239
vn 0.9967 0.0000 -0.0812
vn -0.9967 0.0000 -0.0812
vn 0.0000 0.0000 1.0000
vn -0.0000 0.0000 -1.0000
vn 0.9967 0.0000 0.0812
vn -0.9967 0.0000 0.0812
usemtl lever
s 1
f 31/1/1 6/2/2 48/3/3
f 6/2/2 47/4/4 48/3/3
f 8/5/4 46/6/5 47/4/4
f 10/7/5 45/8/6 46/6/5
f 12/9/6 44/10/7 45/8/6
f 14/11/7 42/12/8 44/10/7
f 42/12/8 18/13/9 41/14/10
f 18/13/9 29/15/11 41/14/10
f 1/16/12 37/17/13 17/18/14
f 8/19/15 6/20/16 38/21/17
f 17/22/9 19/23/11 1/24/11
f 15/25/8 51/26/10 17/22/9
f 52/27/7 15/25/8 13/28/7
f 56/29/6 13/28/7 11/30/6
f 57/31/5 11/30/6 9/32/5
f 58/33/4 9/32/5 7/34/4
f 54/35/3 7/34/4 5/36/2
f 20/37/1 5/36/2 3/38/1
f 40/39/18 70/40/18 69/41/18
f 39/42/19 62/43/19 61/44/19
f 6/20/16 4/45/20 38/21/17
f 62/43/19 39/42/19 63/46/19
f 65/47/19 64/48/19 39/42/19
f 17/18/14 37/17/13 15/49/21
f 5/50/22 37/17/13 3/51/23
f 15/49/21 37/17/13 13/52/24
f 7/53/25 37/17/13 5/50/22
f 13/52/24 37/17/13 11/54/26
f 9/55/27 37/17/13 7/53/25
f 11/54/26 37/17/13 9/55/27
f 38/21/17 2/56/28 18/57/29
f 18/57/29 16/58/30 38/21/17
f 16/58/30 14/59/31 38/21/17
f 14/59/31 12/60/32 38/21/17
f 12/60/32 10/61/33 38/21/17
f 10/61/33 8/19/15 38/21/17
f 69/41/18 68/62/18 40/39/18
f 68/62/18 71/63/18 40/39/18
f 71/63/18 74/64/18 40/39/18
f 74/64/18 75/65/18 40/39/18
f 75/65/18 76/66/18 40/39/18
f 76/66/18 73/67/18 40/39/18
f 73/67/18 72/68/18 40/39/18
f 61/44/19 59/69/19 39/42/19
f 59/69/19 60/70/19 39/42/19
f 64/48/19 63/46/19 39/42/19
f 39/42/19 67/71/19 66/72/19
f 66/72/19 65/47/19 39/42/19
f 51/73/5 28/74/5 41/75/5
f 30/76/19 41/75/19 28/74/19
f 32/77/19 42/78/19 30/76/19
f 33/79/19 44/80/19 32/77/19
f 34/81/19 45/82/19 33/79/19
f 34/81/19 47/83/19 46/84/19
f 36/85/19 47/83/19 35/86/19
f 54/35/3 31/1/1 48/3/3
f 26/87/18 51/73/18 50/88/18
f 49/89/34 21/90/35 36/85/35
f 26/87/18 52/91/18 25/92/18
f 36/85/7 54/93/7 48/94/7
f 25/92/18 56/95/18 24/96/18
f 23/97/18 56/95/18 57/98/18
f 23/97/18 58/99/18 22/100/18
f 22/100/18 54/93/18 21/90/18
f 28/74/36 53/101/37 43/102/37
f 19/23/11 41/14/10 29/15/11
f 66/103/38 35/86/39 65/104/39
f 65/104/39 34/81/40 64/105/40
f 64/105/40 33/79/41 63/106/41
f 63/106/41 32/77/42 62/107/42
f 62/107/42 30/76/43 61/108/43
f 59/109/44 30/76/43 28/74/36
f 59/109/44 43/102/37 60/110/37
f 67/111/34 36/85/35 66/103/38
f 21/90/35 72/112/34 73/113/38
f 76/114/39 21/90/35 73/113/38
f 23/97/40 76/114/39 75/115/40
f 24/96/41 75/115/40 74/116/41
f 25/92/42 74/116/41 71/117/42
f 26/87/43 71/117/42 68/118/43
f 27/119/36 68/118/43 69/120/44
f 53/101/37 69/120/44 70/121/37
f 38/21/18 78/122/45 2/56/45
f 1/16/46 85/123/19 37/17/19
f 20/37/47 84/124/47 31/1/47
f 19/23/48 77/125/48 1/24/48
f 2/126/48 83/127/48 29/15/48
f 4/45/49 86/128/18 38/21/18
f 37/17/19 79/129/50 3/51/50
f 31/1/47 80/130/47 4/131/47
f 3/38/47 82/132/47 20/37/47
f 29/15/48 81/133/48 19/23/48
f 31/1/1 4/131/1 6/2/2
f 6/2/2 8/5/4 47/4/4
f 8/5/4 10/7/5 46/6/5
f 10/7/5 12/9/6 45/8/6
f 12/9/6 14/11/7 44/10/7
f 14/11/7 16/134/8 42/12/8
f 42/12/8 16/134/8 18/13/9
f 18/13/9 2/126/11 29/15/11
f 17/22/9 51/26/10 19/23/11
f 15/25/8 50/135/8 51/26/10
f 52/27/7 50/135/8 15/25/8
f 56/29/6 52/27/7 13/28/7
f 57/31/5 56/29/6 11/30/6
f 58/33/4 57/31/5 9/32/5
f 54/35/3 58/33/4 7/34/4
f 20/37/1 54/35/3 5/36/2
f 51/73/5 27/119/5 28/74/5
f 30/76/19 42/78/19 41/75/19
f 32/77/19 44/80/19 42/78/19
f 33/79/19 45/82/19 44/80/19
f 34/81/19 46/84/19 45/82/19
f 34/81/19 35/86/19 47/83/19
f 36/85/19 48/94/19 47/83/19
f 54/35/3 20/37/1 31/1/1
f 26/87/18 27/119/18 51/73/18
f 49/89/34 55/136/34 21/90/35
f 26/87/18 50/88/18 52/91/18
f 36/85/7 21/90/7 54/93/7
f 25/92/18 52/91/18 56/95/18
f 23/97/18 24/96/18 56/95/18
f 23/97/18 57/98/18 58/99/18
f 22/100/18 58/99/18 54/93/18
f 28/74/36 27/119/36 53/101/37
f 19/23/11 51/26/10 41/14/10
f 66/103/38 36/85/35 35/86/39
f 65/104/39 35/86/39 34/81/40
f 64/105/40 34/81/40 33/79/41
f 63/106/41 33/79/41 32/77/42
f 62/107/42 32/77/42 30/76/43
f 59/109/44 61/108/43 30/76/43
f 59/109/44 28/74/36 43/102/37
f 67/111/34 49/89/34 36/85/35
f 21/90/35 55/136/34 72/112/34
f 76/114/39 22/100/39 21/90/35
f 23/97/40 22/100/39 76/114/39
f 24/96/41 23/97/40 75/115/40
f 25/92/42 24/96/41 74/116/41
f 26/87/43 25/92/42 71/117/42
f 27/119/36 26/87/43 68/118/43
f 53/101/37 27/119/36 69/120/44
f 38/21/18 86/128/18 78/122/45
f 1/16/46 77/137/46 85/123/19
f 20/37/47 82/132/47 84/124/47
f 19/23/48 81/133/48 77/125/48
f 2/126/48 78/138/48 83/127/48
f 4/45/49 80/139/49 86/128/18
f 37/17/19 85/123/19 79/129/50
f 31/1/47 84/124/47 80/130/47
f 3/38/47 79/140/47 82/132/47
f 29/15/48 83/127/48 81/133/48
