# Blender v3.2.0 OBJ File: 'switch.blend'
# www.blender.org
mtllib lever_arm.mtl
g lever
v -0.000451 0.272868 -0.025839
v 0.027084 1.202491 -0.000485
v 0.025863 0.272873 -0.000428
v -0.000473 1.202487 -0.027097
v 0.000473 1.202495 0.027072
v -0.025862 0.272873 0.000475
v 0.000452 0.272878 0.025886
v -0.027084 1.202491 0.000460
v 0.000452 0.783895 0.025861
v 0.025863 0.783890 -0.000453
v -0.025863 0.783890 0.000449
v -0.000452 0.783885 -0.025865
v -0.000753 0.818999 -0.043109
v -0.043105 0.819006 0.000748
v 0.043104 0.819006 -0.000756
v 0.000753 0.819012 0.043101
v 0.043104 1.167303 -0.000763
v -0.043105 1.167302 0.000741
v 0.000753 1.167309 0.043093
v -0.000753 1.167296 -0.043116
v 0.097549 0.108881 0.262861
v 0.097549 0.201185 0.201185
v 0.097549 0.262861 0.108881
v 0.097549 0.284519 -0.000000
v 0.097549 0.262861 -0.108881
v 0.097549 0.201185 -0.201185
v 0.097549 0.108881 -0.262861
v -0.097549 0.108881 -0.262861
v -0.097549 0.000000 -0.284519
v -0.097549 0.201185 -0.201185
v -0.097549 0.262861 -0.108881
v -0.097549 0.284519 -0.000000
v -0.097549 0.262861 0.108881
v -0.097549 0.201185 0.201185
v -0.097549 0.108881 0.262861
v 0.097549 -0.000000 0.284519
v 0.097549 0.000000 -0.284519
v 0.097549 -0.108881 -0.262861
v 0.097549 -0.201185 -0.201185
v 0.097549 -0.201185 0.201185
v 0.097549 -0.108881 0.262861
v -0.097549 -0.108881 0.262861
v -0.097549 -0.000000 0.284519
v -0.097549 -0.201185 0.201185
v -0.097549 -0.201185 -0.201185
v -0.097549 -0.108881 -0.262861
v -0.097549 -0.000000 -0.000000
v 0.097549 -0.000000 -0.000000
vt 0.823059 0.987419
vt 0.875987 0.722136
vt 0.875986 0.987419
vt 0.823059 0.722137
vt 0.770132 0.987419
vt 0.770132 0.722137
vt 0.981842 0.496405
vt 0.928914 0.560451
vt 0.928914 0.496405
vt 0.875987 0.683678
vt 0.928914 0.722137
vt 0.981841 0.987419
vt 0.928914 0.987419
vt 0.981842 0.722137
vt 0.928914 0.683679
vt 0.981842 0.683679
vt 0.770132 0.578933
vt 0.823059 0.560451
vt 0.823059 0.578933
vt 0.875987 0.560450
vt 0.928914 0.578933
vt 0.875987 0.578932
vt 0.981842 0.578933
vt 0.981842 0.560451
vt 0.823059 0.683679
vt 0.770132 0.683679
vt 0.010502 0.187959
vt 0.116826 0.127459
vt 0.116826 0.187959
vt 0.116826 0.248459
vt 0.116826 0.732459
vt 0.010502 0.671959
vt 0.116826 0.671959
vt 0.010502 0.308959
vt 0.116826 0.308959
vt 0.010502 0.369459
vt 0.116826 0.369459
vt 0.010502 0.429959
vt 0.116826 0.429959
vt 0.010502 0.490459
vt 0.116826 0.490459
vt 0.010502 0.550959
vt 0.116826 0.550959
vt 0.010502 0.611459
vt 0.116826 0.611459
vt 0.880190 0.231397
vt 0.829886 0.265009
vt 0.770549 0.121756
vt 0.624195 0.435916
vt 0.767448 0.376578
vt 0.657807 0.486220
vt 0.913802 0.181093
vt 0.925605 0.121756
vt 0.627295 0.181093
vt 0.615492 0.121756
vt 0.660907 0.231397
vt 0.770549 0.276812
vt 0.711211 0.265009
vt 0.910701 0.435916
vt 0.922504 0.376578
vt 0.612392 0.376578
vt 0.708111 0.519832
vt 0.877089 0.486220
vt 0.767448 0.531635
vt 0.826786 0.519832
vt 0.010502 0.066959
vt 0.116826 0.006459
vt 0.116826 0.066959
vt 0.010502 0.127459
vt 0.910701 0.317241
vt 0.877089 0.266937
vt 0.627295 0.062418
vt 0.913802 0.062419
vt 0.660907 0.012115
vt 0.880190 0.012115
vt 0.624195 0.317241
vt 0.657807 0.266937
vt 0.770132 0.560451
vt 0.010502 0.248459
vt 0.010502 0.732459
vt 0.010502 0.006459
vn -0.9998 -0.0000 0.0174
vn -0.0175 -0.0001 -0.9998
vn -0.9998 -0.0000 0.0175
vn 0.0174 0.0001 0.9998
vn 0.0175 0.0001 0.9998
vn -0.6793 0.7337 0.0118
vn 0.6793 0.7337 -0.0119
vn -0.0119 0.7337 -0.6794
vn -0.8975 -0.4408 0.0157
vn -0.0171 -0.2066 -0.9783
vn -0.0157 -0.4408 -0.8974
vn 0.9998 0.0000 -0.0174
vn 0.9998 0.0000 -0.0175
vn 0.0157 -0.4407 0.8975
vn 0.9783 -0.2066 -0.0171
vn 0.0171 -0.2065 0.9783
vn 0.0171 0.1946 0.9807
vn -0.9807 0.1945 0.0171
vn 0.9807 0.1945 -0.0171
vn -0.0171 0.1945 -0.9808
vn 0.0119 0.7338 0.6792
vn 0.8975 -0.4408 -0.0157
vn -0.9783 -0.2066 0.0171
vn -0.0000 0.3827 -0.9239
vn -0.0000 -0.0000 -1.0000
vn 0.0000 0.7071 -0.7071
vn 0.0000 -0.5556 0.8315
vn 0.0000 -0.3827 0.9239
vn 0.0000 0.9239 -0.3827
vn 0.0000 1.0000 0.0000
vn 0.0000 0.9239 0.3827
vn 0.0000 0.7071 0.7071
vn 0.0000 0.3827 0.9239
vn 0.0000 -0.0000 1.0000
vn 1.0000 -0.0000 -0.0000
vn -1.0000 0.0000 0.0000
vn 0.0000 -0.3827 -0.9239
vn 0.0000 -0.5556 -0.8315
usemtl lever
s 1
f 6/1/1 12/2/2 1/3/2
f 11/4/3 7/5/4 9/6/5
f 8/7/6 2/8/7 4/9/8
f 11/4/9 13/10/10 12/2/11
f 10/11/12 7/12/4 3/13/13
f 9/14/14 15/15/15 16/16/16
f 19/17/17 8/18/6 18/19/18
f 4/20/8 17/21/19 20/22/20
f 19/23/17 2/8/7 5/24/21
f 13/10/10 10/11/22 12/2/11
f 9/6/14 14/25/23 11/4/9
f 12/2/2 3/13/13 1/3/2
f 18/19/18 4/20/8 20/22/20
f 14/25/23 20/22/20 13/10/10
f 16/16/16 17/21/19 19/23/17
f 20/22/20 15/15/15 13/10/10
f 16/26/16 18/19/18 14/25/23
f 27/27/24 29/28/25 28/29/24
f 30/30/26 27/27/24 28/29/24
f 44/31/27 41/32/28 42/33/28
f 25/34/29 30/30/26 31/35/29
f 24/36/30 31/35/29 32/37/30
f 23/38/31 32/37/30 33/39/31
f 22/40/32 33/39/31 34/41/32
f 21/42/33 34/41/32 35/43/33
f 36/44/34 35/43/33 43/45/34
f 26/46/35 25/47/35 48/48/35
f 28/49/36 47/50/36 30/51/36
f 41/32/28 43/45/34 42/33/28
f 27/52/35 48/48/35 37/53/35
f 48/48/35 21/54/35 36/55/35
f 48/48/35 27/52/35 26/46/35
f 48/48/35 22/56/35 21/54/35
f 48/48/35 25/47/35 24/57/35
f 23/58/35 22/56/35 48/48/35
f 24/57/35 23/58/35 48/48/35
f 35/59/36 47/50/36 43/60/36
f 47/50/36 28/49/36 29/61/36
f 30/51/36 47/50/36 31/62/36
f 34/63/36 47/50/36 35/59/36
f 31/62/36 47/50/36 32/64/36
f 33/65/36 47/50/36 34/63/36
f 32/64/36 47/50/36 33/65/36
f 38/66/37 45/67/38 46/68/37
f 37/69/25 46/68/37 29/28/25
f 42/70/36 47/50/36 44/71/36
f 41/72/35 48/48/35 36/55/35
f 48/48/35 38/73/35 37/53/35
f 48/48/35 41/72/35 40/74/35
f 48/48/35 39/75/35 38/73/35
f 46/76/36 47/50/36 29/61/36
f 47/50/36 42/70/36 43/60/36
f 45/77/36 47/50/36 46/76/36
f 6/1/1 11/4/3 12/2/2
f 11/4/3 6/1/1 7/5/4
f 8/7/6 5/24/21 2/8/7
f 11/4/9 14/25/23 13/10/10
f 10/11/12 9/14/5 7/12/4
f 9/14/14 10/11/22 15/15/15
f 19/17/17 5/78/21 8/18/6
f 4/20/8 2/8/7 17/21/19
f 19/23/17 17/21/19 2/8/7
f 13/10/10 15/15/15 10/11/22
f 9/6/14 16/26/16 14/25/23
f 12/2/2 10/11/12 3/13/13
f 18/19/18 8/18/6 4/20/8
f 14/25/23 18/19/18 20/22/20
f 16/16/16 15/15/15 17/21/19
f 20/22/20 17/21/19 15/15/15
f 16/26/16 19/17/17 18/19/18
f 27/27/24 37/69/25 29/28/25
f 30/30/26 26/79/26 27/27/24
f 44/31/27 40/80/27 41/32/28
f 25/34/29 26/79/26 30/30/26
f 24/36/30 25/34/29 31/35/29
f 23/38/31 24/36/30 32/37/30
f 22/40/32 23/38/31 33/39/31
f 21/42/33 22/40/32 34/41/32
f 36/44/34 21/42/33 35/43/33
f 41/32/28 36/44/34 43/45/34
f 38/66/37 39/81/38 45/67/38
f 37/69/25 38/66/37 46/68/37
